<mxfile host="app.diagrams.net" modified="2021-08-01T13:20:51.226Z" agent="5.0 (Windows NT 10.0; Win64; x64) AppleWebKit/537.36 (KHTML, like Gecko) Chrome/90.0.4430.93 Safari/537.36" etag="_Dckq14wSVs3oFuc_jQU" version="14.9.3" type="github">
  <diagram id="doaO3T_NP-BhFEfy7yjg" name="Page-1">
    <mxGraphModel dx="781" dy="477" grid="1" gridSize="10" guides="1" tooltips="1" connect="1" arrows="1" fold="1" page="1" pageScale="1" pageWidth="827" pageHeight="1169" math="0" shadow="0">
      <root>
        <mxCell id="0" />
        <mxCell id="1" parent="0" />
        <mxCell id="gqEycvacwhCloaUmMCjN-1" value="Activity" style="html=1;" vertex="1" parent="1">
          <mxGeometry x="80" y="170" width="110" height="50" as="geometry" />
        </mxCell>
        <mxCell id="gqEycvacwhCloaUmMCjN-2" value="Service" style="html=1;" vertex="1" parent="1">
          <mxGeometry x="80" y="250" width="110" height="50" as="geometry" />
        </mxCell>
        <mxCell id="gqEycvacwhCloaUmMCjN-3" value="其他ContextWrapper&lt;br&gt;" style="html=1;" vertex="1" parent="1">
          <mxGeometry x="70" y="330" width="130" height="50" as="geometry" />
        </mxCell>
        <mxCell id="gqEycvacwhCloaUmMCjN-9" value="ContextWrapper" style="swimlane;fontStyle=0;childLayout=stackLayout;horizontal=1;startSize=26;fillColor=none;horizontalStack=0;resizeParent=1;resizeParentMax=0;resizeLast=0;collapsible=1;marginBottom=0;" vertex="1" parent="1">
          <mxGeometry x="324" y="220" width="180" height="86" as="geometry" />
        </mxCell>
        <mxCell id="gqEycvacwhCloaUmMCjN-10" value="- mBase: Context" style="text;strokeColor=none;fillColor=none;align=left;verticalAlign=top;spacingLeft=4;spacingRight=4;overflow=hidden;rotatable=0;points=[[0,0.5],[1,0.5]];portConstraint=eastwest;" vertex="1" parent="gqEycvacwhCloaUmMCjN-9">
          <mxGeometry y="26" width="180" height="26" as="geometry" />
        </mxCell>
        <mxCell id="gqEycvacwhCloaUmMCjN-13" value="" style="line;strokeWidth=1;fillColor=none;align=left;verticalAlign=middle;spacingTop=-1;spacingLeft=3;spacingRight=3;rotatable=0;labelPosition=right;points=[];portConstraint=eastwest;" vertex="1" parent="gqEycvacwhCloaUmMCjN-9">
          <mxGeometry y="52" width="180" height="8" as="geometry" />
        </mxCell>
        <mxCell id="gqEycvacwhCloaUmMCjN-14" value="+ getBaseContext: Context" style="text;strokeColor=none;fillColor=none;align=left;verticalAlign=top;spacingLeft=4;spacingRight=4;overflow=hidden;rotatable=0;points=[[0,0.5],[1,0.5]];portConstraint=eastwest;" vertex="1" parent="gqEycvacwhCloaUmMCjN-9">
          <mxGeometry y="60" width="180" height="26" as="geometry" />
        </mxCell>
        <mxCell id="gqEycvacwhCloaUmMCjN-15" value="Extends" style="endArrow=block;endSize=16;endFill=0;html=1;exitX=1;exitY=0.5;exitDx=0;exitDy=0;entryX=0;entryY=0.25;entryDx=0;entryDy=0;" edge="1" parent="1" source="gqEycvacwhCloaUmMCjN-1" target="gqEycvacwhCloaUmMCjN-9">
          <mxGeometry width="160" relative="1" as="geometry">
            <mxPoint x="320" y="240" as="sourcePoint" />
            <mxPoint x="480" y="240" as="targetPoint" />
          </mxGeometry>
        </mxCell>
        <mxCell id="gqEycvacwhCloaUmMCjN-16" value="Extends" style="endArrow=block;endSize=16;endFill=0;html=1;exitX=1;exitY=0.5;exitDx=0;exitDy=0;entryX=-0.006;entryY=-0.128;entryDx=0;entryDy=0;entryPerimeter=0;" edge="1" parent="1" source="gqEycvacwhCloaUmMCjN-2" target="gqEycvacwhCloaUmMCjN-14">
          <mxGeometry width="160" relative="1" as="geometry">
            <mxPoint x="200" y="205" as="sourcePoint" />
            <mxPoint x="334" y="251.5" as="targetPoint" />
          </mxGeometry>
        </mxCell>
        <mxCell id="gqEycvacwhCloaUmMCjN-17" value="Extends" style="endArrow=block;endSize=16;endFill=0;html=1;exitX=1;exitY=0.5;exitDx=0;exitDy=0;entryX=0;entryY=0.5;entryDx=0;entryDy=0;" edge="1" parent="1" source="gqEycvacwhCloaUmMCjN-3" target="gqEycvacwhCloaUmMCjN-14">
          <mxGeometry width="160" relative="1" as="geometry">
            <mxPoint x="210" y="215" as="sourcePoint" />
            <mxPoint x="344" y="261.5" as="targetPoint" />
          </mxGeometry>
        </mxCell>
      </root>
    </mxGraphModel>
  </diagram>
</mxfile>
